<?xml version="1.0" encoding="utf-8"?>
<!-- Generator: Adobe Illustrator 18.1.1, SVG Export Plug-In . SVG Version: 6.00 Build 0)  -->
<svg version="1.1" id="Layer_1" xmlns="http://www.w3.org/2000/svg" xmlns:xlink="http://www.w3.org/1999/xlink" x="0px" y="0px"
	 viewBox="0 1017.7 841.9 171.3" enable-background="new 0 1017.7 841.9 171.3" xml:space="preserve">
<rect y="1017.7" fill="#00529B" width="169" height="169"/>
<polygon fill="#EC1846" points="104.7,1103.3 169,1019.9 159.5,1019.9 95,1103.3 "/>
<path fill="#FFFFFF" d="M70.9,1160.5l4.6-6.4c-0.4-0.5-3-8.4-3-8.4l-4.5,5.8L70.9,1160.5z M45.5,1121.1C43.7,1125,33,1138,33,1138
	h16.9c0,0-3.3-10.1-3.8-12.3c-0.5-1.8-0.3-4.1-0.3-4.4C45.8,1121,45.7,1120.7,45.5,1121.1 M110.4,1121.1
	c-1.8,3.9-12.5,16.9-12.5,16.9h16.9c0,0-3.3-10.1-3.8-12.3c-0.5-1.8-0.3-4.1-0.3-4.4C110.6,1121,110.6,1120.7,110.4,1121.1
	 M129.1,1140.6c2.9,8.2,9,29.7,11.4,31.4h-15.9c0,0-0.1-3.2-0.7-5.6c-0.7-2.5-6.5-21-6.5-21H92.1l-4,5.6c0,0,4.8,15,5.1,15.7
	c0.5,1.3,2.8,5.3,2.8,5.3H80.7c0,0-0.4-2.3-0.5-3.2c-0.1-0.8-1.4-5-1.4-5s-3.5,3.8-4.4,5.6c-1,1.8-1.4,2.7-1.4,2.7H61
	c0,0-0.4-2.3-0.5-3.2c-0.1-0.8-1.6-5.3-1.6-5.3s-3.3,4.1-4.3,5.8c-0.9,1.8-1.4,2.7-1.4,2.7H41.4c0,0,3.3-3.2,4.5-4.5
	c2-2.3,9.3-11.9,9.3-11.9l-2.9-10.2H27.2c0,0-14.3,18.8-14.9,19.4c-0.6,0.6-4.7,6.6-4.8,7.2H0v-4.7c0.1-0.1,0.2-0.2,0.3-0.3
	c0.2-0.2,10.9-13.4,20.6-26.4c8.8-11.3,17-22.4,17.7-23.4c1.7-2.5,4.3-8,4.3-8h13c0,0,0.4,5,0.8,6.3c0.3,1.1,8.3,27,8.4,27.3
	l4.4-5.6l-7.5-23c0,0-1.8-4.3-2.3-5h15.2c0,0-0.1,2.2,0.5,4.1c0.6,1.9,3.9,13.6,3.9,13.6s10.3-13,11-13.9c1.1-1.6,1.3-3.9,1.3-3.9
	h12.6c0,0-2.3,1.7-6.4,6.8c-1.4,1.7-14.8,18.6-14.8,18.6s1.2,4,1.7,5.9c0.2,0.6,0.3,1,0.3,1s0.3-0.3,0.8-1
	c3.4-4.4,19.1-24.9,20.1-26.7c0.8-1.4,1.9-3,2.6-4.8h12.3c0,0,0.3,3.7,0.7,4.7L129.1,1140.6z"/>
<polygon fill="#ED272C" points="419.2,1188.9 459.4,1136.7 449.8,1136.7 409.4,1188.9 "/>
<polygon fill="#EC1846" points="418.9,1188 459.1,1135.8 449.5,1135.9 409.2,1188 "/>
<path fill="#00529B" d="M491,1172.4c-0.5,1.3-1.3,2.5-2.2,3.4c-1,0.9-2.1,1.7-3.4,2.2c-1.3,0.5-2.8,0.8-4.4,0.8
	c-3.4,0-6.2-1.2-8.4-3.6c-2.2-2.4-3.3-5.4-3.3-9.2c0-4.7,2.3-9,6.9-13l-3.6-5.1l1.9-1.3l4.7,6.5c-5.1,4.1-7.6,8.3-7.6,12.8
	c0,1.5,0.2,2.9,0.7,4.2c0.5,1.3,1.1,2.4,2,3.3c0.8,0.9,1.8,1.7,3,2.2c1.1,0.5,2.4,0.8,3.8,0.8c1.2,0,2.4-0.2,3.4-0.6
	c1-0.4,1.9-1,2.7-1.8c0.7-0.8,1.3-1.7,1.8-2.7c0.4-1,0.6-2.2,0.6-3.4V1147h2.4v20.9C491.8,1169.6,491.5,1171,491,1172.4"/>
<path fill="#00529B" d="M525.4,1162.7c0,4.8-1.3,8.6-4,11.6c-2.7,3-6.3,4.5-10.6,4.5c-4.3,0-7.9-1.5-10.6-4.5c-2.7-3-4-6.9-4-11.6
	c0-0.4,0.1-1.3,0.2-2.7h10v2.3h-7.9v0.4c0,4,1.2,7.3,3.5,9.9s5.3,3.9,8.9,3.9s6.5-1.3,8.8-3.9c2.4-2.5,3.5-5.8,3.5-9.9
	c0-4-1.2-7.3-3.5-9.9c-2.3-2.6-5.2-3.9-8.8-3.9c-5.4,0-9.1,2.5-11.1,7.6h-2.5c0.5-1.5,1.2-2.9,2-4.1c0.9-1.2,1.9-2.3,3-3.1
	c1.2-0.9,2.5-1.5,3.9-2c1.4-0.5,3-0.7,4.6-0.7c4.4,0,7.9,1.5,10.6,4.5C524,1154.1,525.4,1158,525.4,1162.7"/>
<path fill="#00529B" d="M553.3,1162.6c0,2.5-0.4,4.7-1.1,6.6c-0.7,1.9-1.8,3.6-3.2,4.9c-1.4,1.4-3.1,2.4-5.1,3.1
	c-2,0.7-4.2,1.1-6.7,1.1c-0.5,0-1,0-1.5,0s-1-0.1-1.5-0.1l-7.5-30.6l2.3-0.5l7.1,29c2.2,0.1,4.2-0.1,6-0.6c1.8-0.5,3.3-1.4,4.6-2.5
	c1.3-1.2,2.3-2.6,3-4.3c0.7-1.7,1.1-3.7,1.1-6c0-2.1-0.3-3.9-0.8-5.6c-0.6-1.6-1.4-3-2.4-4.2c-1.1-1.1-2.4-2-4-2.6
	c-1.6-0.6-3.4-0.9-5.4-0.9h-0.9c-0.3,0-0.7,0-1,0.1v-2.3c0.4,0,0.7-0.1,1.1-0.1h1.1c2.4,0,4.5,0.4,6.4,1.1c1.8,0.7,3.4,1.7,4.6,3.1
	c1.2,1.3,2.2,3,2.8,4.9C553,1158,553.3,1160.2,553.3,1162.6"/>
<path fill="#00529B" d="M579.4,1157.4c0-2.7-1-4.9-2.9-6.4c-1.8-1.4-4-2.1-6.8-2.1c-4.3,0-7.6,1.6-9.7,4.7v24.7h-2.3v-25.4
	c2.8-4.2,6.8-6.3,12-6.3c3.3,0,6.1,0.9,8.4,2.6c2.5,1.8,3.7,4.3,3.7,7.6v21.5h-2.4V1157.4z"/>
<path fill="#00529B" d="M599.9,1158.2c0-3-0.7-5.3-2.2-6.9c-1.4-1.7-3.6-2.5-6.4-2.5c-2.5,0-4.5,0.6-6.1,1.9v-2.4
	c1.1-0.5,2.1-0.9,3.1-1.2c1-0.3,2-0.4,3.1-0.4c3.5,0,6.3,1.1,8.2,3.2c1.7,2,2.6,4.6,2.6,7.7v20.8h-2.3L599.9,1158.2L599.9,1158.2z"
	/>
<path fill="#00529B" d="M630.9,1168.8c0,3.2-1.2,5.7-3.7,7.6c-2.2,1.7-5.1,2.5-8.5,2.5c-3.4,0-6.2-0.8-8.5-2.5
	c-2.5-1.9-3.7-4.4-3.7-7.6h2.3c0,2.5,1,4.4,3,5.8c0.9,0.7,1.9,1.1,3.1,1.5c1.2,0.3,2.4,0.5,3.8,0.5s2.6-0.2,3.7-0.5
	c1.1-0.3,2.1-0.8,3.1-1.5c2.1-1.5,3.1-3.4,3.1-5.8c0-3.3-3.2-5.6-9.5-6.8c-2-0.4-3.6-0.7-4.9-1c-1.3-0.3-2.3-0.7-3.1-1
	c-2.6-1.2-3.9-2.8-3.9-5.1c0-1.2,0.3-2.3,0.9-3.3c0.6-1,1.4-1.9,2.6-2.7c1.1-0.7,2.3-1.3,3.5-1.6c1.3-0.4,2.6-0.5,4.2-0.5
	c3.1,0,5.7,0.7,7.9,2c2.5,1.5,3.9,3.5,4.4,6.2H628c-0.5-2-1.8-3.4-3.8-4.4c-1.7-0.9-3.7-1.4-5.9-1.4c-2.1,0-4.1,0.5-5.9,1.6
	c-1.8,1-2.7,2.4-2.7,4c0,1.5,1.1,2.6,3.3,3.5c0.5,0.2,1.3,0.4,2.4,0.7c1.1,0.2,2.5,0.5,4.2,0.9
	C627.1,1161.1,630.9,1164.2,630.9,1168.8"/>
<path fill="#00529B" d="M655.7,1176c-2.4,1.9-5.2,2.8-8.5,2.8c-3.3,0-6.1-1-8.5-2.8c-1.2-1-2.1-2.1-2.7-3.3
	c-0.6-1.2-0.9-2.6-0.9-4.1v-21.4h2.3v21.4c0,1.2,0.3,2.3,0.8,3.2c0.5,1,1.2,1.8,2.1,2.5c0.9,0.7,1.9,1.2,3.1,1.6
	c1.2,0.4,2.4,0.6,3.7,0.6s2.6-0.2,3.7-0.6c1.2-0.4,2.2-0.9,3.1-1.6c0.9-0.7,1.6-1.5,2.1-2.5c0.5-1,0.8-2.1,0.8-3.2v-29.2h2.4v29.2
	C659.3,1171.5,658.1,1174,655.7,1176"/>
<path fill="#00529B" d="M688,1168.8c0,3.2-1.2,5.7-3.7,7.6c-2.2,1.7-5.1,2.5-8.5,2.5c-3.4,0-6.2-0.8-8.5-2.5
	c-2.5-1.9-3.7-4.4-3.7-7.6h2.3c0,2.5,1,4.4,3,5.8c0.9,0.7,1.9,1.1,3.1,1.5c1.2,0.3,2.4,0.5,3.8,0.5s2.6-0.2,3.7-0.5
	c1.1-0.3,2.1-0.8,3.1-1.5c2.1-1.5,3.1-3.4,3.1-5.8c0-3.3-3.2-5.6-9.5-6.8c-2-0.4-3.6-0.7-4.9-1c-1.3-0.3-2.3-0.7-3.1-1
	c-2.6-1.2-3.9-2.8-3.9-5.1c0-1.2,0.3-2.3,0.9-3.3c0.6-1,1.4-1.9,2.6-2.7c1.1-0.7,2.3-1.3,3.5-1.6c1.3-0.4,2.6-0.5,4.2-0.5
	c3.1,0,5.7,0.7,7.9,2c2.5,1.5,3.9,3.5,4.4,6.2h-2.5c-0.5-2-1.8-3.4-3.8-4.4c-1.7-0.9-3.7-1.4-5.9-1.4c-2.1,0-4.1,0.5-5.9,1.6
	c-1.8,1-2.7,2.4-2.7,4c0,1.5,1.1,2.6,3.3,3.5c0.5,0.2,1.3,0.4,2.4,0.7c1.1,0.2,2.5,0.5,4.2,0.9C684.2,1161.1,688,1164.2,688,1168.8"
	/>
<path fill="#00529B" d="M691.1,1170h2.3v2.1h5.1v2.3h-7.4L691.1,1170L691.1,1170z M691.1,1151h2.3v2.1h5.1v2.3h-7.4L691.1,1151
	L691.1,1151z"/>
<path fill="#00529B" d="M724.2,1157.4c0-2.7-1-4.9-2.9-6.4c-1.8-1.4-4.1-2.1-6.8-2.1c-4.3,0-7.6,1.6-9.7,4.7v24.7h-2.3v-25.4
	c2.8-4.2,6.9-6.3,12-6.3c3.3,0,6.1,0.9,8.4,2.6c2.5,1.8,3.7,4.3,3.7,7.6v21.5h-2.4V1157.4z"/>
<polygon fill="#00529B" points="716.4,1138.6 718.7,1138.6 718.7,1140.9 736.6,1140.9 736.6,1143.3 716.4,1143.3 "/>
<path fill="#00529B" d="M753.7,1173.9c-0.5,0.7-1.1,1.4-1.9,2c-0.8,0.6-1.6,1.1-2.6,1.5c-0.9,0.4-1.9,0.8-3,1
	c-1,0.2-2.1,0.4-3.1,0.4c-1.6,0-3.1-0.2-4.4-0.7c-1.4-0.5-2.6-1.2-3.7-2.1c-1.1-1-1.9-2.1-2.4-3.3s-0.8-2.6-0.8-4.1v-21.4h2.3v21.4
	c0,1.2,0.2,2.3,0.7,3.2c0.4,1,1.1,1.8,1.9,2.5c0.8,0.7,1.7,1.2,2.8,1.6c1.1,0.4,2.3,0.6,3.6,0.6c2.6,0,5-0.8,7.2-2.5
	c2.2-1.7,3.3-3.8,3.3-6.1v-20.7h2.4v31.1h-2.4v-4.4H753.7z"/>
<path fill="#00529B" d="M783.6,1157.4c0-2.7-0.9-4.9-2.8-6.4c-1.8-1.4-4.1-2.1-6.9-2.1c-4.3,0-7.5,1.6-9.7,4.7v24.7h-5.4v-2.3h3.1
	v-23.1c2.9-4.2,6.9-6.3,12-6.3c3.3,0,6.1,0.9,8.4,2.6c2.4,1.8,3.6,4.3,3.6,7.6v21.5h-2.4v-20.9H783.6z"/>
<polygon fill="#00529B" points="775.9,1138.6 778.2,1138.6 778.2,1140.9 796.1,1140.9 796.1,1143.3 775.9,1143.3 "/>
<path fill="#00529B" d="M803.5,1178.7c-4.2,0-7.4-1-9.9-3c-2.3-1.8-3.4-4.2-3.4-7.1c0-1.1,0.2-2.1,0.6-3.2c0.4-1,1-2,1.8-2.9
	c1.3-1.4,2.7-2.4,4.4-2.8c-0.8-0.1-1.6-0.3-2.4-0.6c-0.7-0.3-1.4-0.7-1.9-1.3c-0.6-0.5-1-1.2-1.3-1.9c-0.3-0.7-0.5-1.5-0.5-2.4
	c0-1,0.2-1.9,0.7-2.8c0.5-0.8,1.1-1.6,1.9-2.2c0.8-0.6,1.7-1.1,2.8-1.4c1.1-0.3,2.2-0.5,3.4-0.5c1.5,0,2.8,0.2,3.9,0.5v2.3
	c-1.1-0.4-2.3-0.5-3.8-0.5c-0.9,0-1.7,0.1-2.5,0.3c-0.8,0.2-1.4,0.5-2,0.9c-0.6,0.4-1,0.9-1.3,1.4s-0.5,1.2-0.5,1.9
	c0,1.6,0.8,2.8,2.3,3.6c1.4,0.8,3,1.2,4.9,1.2h2.9v2.3h-2.2c-2.2,0-4.1,0.7-5.8,2.1c-1.9,1.4-2.8,3.3-2.8,5.6c0,1.2,0.3,2.2,0.8,3.2
	c0.5,1,1.2,1.8,2.2,2.5c0.9,0.7,2.1,1.2,3.4,1.6c1.3,0.4,2.8,0.6,4.5,0.6c3.7,0,6.9-1.2,9.6-3.5v-25.8h2.4v26.8
	C812.8,1177.2,808.8,1178.7,803.5,1178.7"/>
<path fill="#00529B" d="M236.2,1174.7c-1.4,1.3-2.9,2.2-4.5,2.8c-1.6,0.6-3.3,0.9-5.2,0.9c-1.8,0-3.4-0.3-4.9-0.8s-2.8-1.2-3.8-2.2
	c-1.1-0.9-1.9-2.1-2.5-3.4c-0.6-1.3-0.9-2.8-0.9-4.4v-20.9h4.7v20.3c0,1.1,0.2,2,0.5,2.9c0.4,0.9,0.9,1.6,1.5,2.2
	c0.7,0.6,1.5,1.1,2.4,1.4c1,0.3,2,0.5,3.1,0.5s2.2-0.2,3.3-0.5c1.1-0.4,2.1-0.9,3.1-1.5c2-1.3,3-2.9,3-4.9v-20.4h4.7v31.1H236v-3.1
	H236.2z"/>
<rect x="216.8" y="1139" fill="#00529B" width="24.1" height="3.9"/>
<path fill="#00529B" d="M258.9,1178.4c-2.3,0-4.4-0.3-6.2-0.8c-1.8-0.5-3.4-1.3-4.7-2.4c-2.4-1.9-3.6-4.4-3.6-7.4
	c0-1.8,0.6-3.5,1.9-5c1-1.4,2.2-2.4,3.6-3c-0.6-0.2-1.2-0.5-1.8-0.9c-0.6-0.4-1.1-0.8-1.5-1.4c-0.4-0.5-0.8-1.1-1.1-1.7
	s-0.4-1.3-0.4-2c0-1.1,0.3-2.1,0.8-3c0.5-0.9,1.2-1.7,2.1-2.4c0.9-0.7,1.9-1.2,3.1-1.6c1.2-0.4,2.5-0.6,3.9-0.6
	c1.8,0,3.5,0.3,5.1,0.8v4.3c-1.2-0.3-2.2-0.5-3.1-0.6c-0.8-0.1-1.5-0.2-1.9-0.2c-3.4,0-5.1,1.1-5.1,3.2c0,2.3,2,3.4,6.1,3.4h4v4.4
	h-3.3c-0.9,0-1.8,0.2-2.7,0.5c-0.9,0.3-1.7,0.7-2.4,1.3c-0.7,0.5-1.3,1.2-1.7,1.9c-0.4,0.7-0.6,1.6-0.6,2.4c0,1,0.2,1.8,0.7,2.6
	c0.5,0.8,1.1,1.4,1.9,2c0.8,0.5,1.8,1,3,1.3c1.2,0.3,2.5,0.4,4,0.4c3,0,5.8-0.9,8.4-2.6v-24.7h4.7v26.4
	C268.9,1176.6,264.5,1178.4,258.9,1178.4"/>
<path fill="#00529B" d="M289.2,1158.7c0-2.5-0.6-4.4-1.9-5.9c-1.3-1.5-3.1-2.2-5.6-2.2c-2.5,0-4.8,0.7-7.1,2.2v-4.9
	c2-1.1,4.4-1.6,7.3-1.6c4,0,7,1.1,9.1,3.4c1.9,1.9,2.9,4.5,2.9,7.8v20.5h-4.7L289.2,1158.7L289.2,1158.7z"/>
<path fill="#00529B" d="M324.2,1172.1c-0.6,1.3-1.4,2.4-2.5,3.4s-2.3,1.7-3.8,2.2c-1.5,0.5-3.1,0.8-4.9,0.8c-1.8,0-3.5-0.3-5.2-0.9
	c-1.6-0.6-3.1-1.5-4.5-2.8v3.2h-4.7v-31.1h4.7v20.4c0,2,1,3.6,3,4.9c1,0.7,2.1,1.2,3.1,1.5c1.1,0.4,2.2,0.5,3.3,0.5
	c1.1,0,2.2-0.2,3.1-0.5c0.9-0.3,1.7-0.8,2.4-1.4c0.7-0.6,1.2-1.4,1.5-2.2c0.4-0.9,0.6-1.8,0.6-2.9v-20.3h4.7v20.9
	C325.1,1169.3,324.8,1170.8,324.2,1172.1"/>
<path fill="#00529B" d="M339.9,1136c0,1.3-0.7,2.6-2.1,4c-1.3,1.3-1.9,2.6-1.9,3.9v34h-4.7v-34.8c0-1.5,0.7-2.9,2-4.1
	c1.3-1.2,2-2.2,2-2.9c0-1.8-1.2-2.7-3.7-2.7c-2.7,0-4.1,1.4-4.1,4.1h-4.7c0-1.2,0.2-2.4,0.7-3.4s1.1-1.9,1.9-2.6
	c0.8-0.7,1.7-1.3,2.8-1.7c1.1-0.4,2.2-0.6,3.4-0.6c1.2,0,2.3,0.2,3.3,0.5c1,0.4,1.9,0.8,2.7,1.4c0.8,0.6,1.4,1.3,1.8,2.1
	C339.7,1134.2,339.9,1135.1,339.9,1136"/>
<path fill="#00529B" d="M363.9,1162.3c0-1-0.2-1.9-0.6-2.7c-0.4-0.8-1-1.5-1.7-2.1c-0.7-0.6-1.6-1.1-2.6-1.4c-1-0.3-2.1-0.5-3.2-0.5
	l-9.6,6.7v15.6h-4.7v-31.1h4.7v10.3l16-10.7l5.3,1.4l-7.1,4.9c1.2,0.2,2.4,0.6,3.4,1.2c1,0.5,1.9,1.2,2.7,2c0.7,0.8,1.3,1.7,1.7,2.6
	c0.4,1,0.6,2,0.6,3.1v16.3h-4.7v-15.6H363.9z"/>
<path fill="#00529B" d="M398.4,1172.1c-0.6,1.3-1.4,2.4-2.5,3.4c-1.1,1-2.3,1.7-3.8,2.2c-1.5,0.5-3.1,0.8-4.9,0.8
	c-1.8,0-3.5-0.3-5.2-0.9c-1.6-0.6-3.1-1.5-4.5-2.8v3.2h-4.7v-31.1h4.7v20.4c0,2,1,3.6,3,4.9c1,0.7,2.1,1.2,3.1,1.5
	c1.1,0.4,2.2,0.5,3.3,0.5s2.2-0.2,3.1-0.5c0.9-0.3,1.7-0.8,2.4-1.4c0.7-0.6,1.2-1.4,1.5-2.2c0.4-0.9,0.5-1.8,0.5-2.9v-20.3h4.7v20.9
	C399.3,1169.3,399,1170.8,398.4,1172.1"/>
<rect x="394.7" y="1134.3" fill="#00529B" width="4.7" height="8.5"/>
</svg>
